<?xml version="1.0" encoding="UTF-8"?>
<svg id="_图层_1" data-name="图层 1" xmlns="http://www.w3.org/2000/svg" xmlns:xlink="http://www.w3.org/1999/xlink" viewBox="0 0 4035.2 1210.17">
  <defs>
    <style>
      .cls-1 {
        fill: #7dc8e5;
      }

      .cls-2 {
        fill: none;
      }

      .cls-3 {
        fill: url(#_未命名的渐变_6);
      }

      .cls-4 {
        fill: #7ecae8;
        stroke: #7ecae8;
        stroke-miterlimit: 10;
        stroke-width: .75px;
      }
    </style>
    <linearGradient id="_未命名的渐变_6" data-name="未命名的渐变 6" x1="454.93" y1="409.75" x2="610.19" y2="565.01" gradientUnits="userSpaceOnUse">
      <stop offset="0" stop-color="#ff7bac"/>
      <stop offset=".22" stop-color="#ff7bac" stop-opacity=".76"/>
      <stop offset=".6" stop-color="#ff7bac" stop-opacity=".36"/>
      <stop offset=".87" stop-color="#ff7bac" stop-opacity=".1"/>
      <stop offset="1" stop-color="#ff7bac" stop-opacity="0"/>
    </linearGradient>
  </defs>
  <g>
    <g>
      <path class="cls-1" d="M824.32,266.78h119.33c-15.77-40.47-37.6-78.31-64.75-112.21-25-31.52-54.41-59.28-87.32-82.42-31.81-22.13-66.68-39.48-103.51-51.53-36.21-11.88-73.86-18.82-111.93-20.63,53.84,24.04,102.69,57.96,144.03,100,46.16,47.57,81.67,104.43,104.16,166.79Z"/>
      <path class="cls-1" d="M743.28,749.69c-52.38,44.33-119.09,68.1-187.69,66.88-34.51-.2-68.63-7.41-100.28-21.18-34.05-14.57-64.86-35.77-90.65-62.35-28.1-29.3-50.11-63.89-64.75-101.76-17.81-43.66-26.56-90.5-25.72-137.65-.57-42.06,5.87-83.92,19.06-123.86,11.87-35.49,29.94-68.6,53.38-97.78,22.12-27.36,49.44-50.06,80.39-66.79,31.15-16.8,65.21-27.51,100.37-31.54-15.74-9.18-32.59-16.3-50.14-21.18-16.81-4.69-34.17-7.09-51.62-7.12-35.73-.06-70.97,8.31-102.87,24.42-33.16,16.73-62.49,40.17-86.12,68.82-26.13,31.75-46.4,67.9-59.85,106.75-15.53,44.84-23.14,92.05-22.48,139.5-1.04,63.65,10.08,126.91,32.75,186.4,19.87,51.65,49.84,98.83,88.16,138.76,36.68,37.59,80.79,67.14,129.51,86.77,49.59,20.24,102.68,30.52,156.24,30.25,41.4-.06,82.55-6.3,122.11-18.5,39.64-11.98,77.12-30.21,111.01-54.02,34.63-24.37,65.22-54.02,90.65-87.88,27.6-36.91,49.69-77.64,65.59-120.9l-99.17-88.9c-18.5,84.36-54.45,148.66-107.86,192.87Z"/>
      <path class="cls-1" d="M197.5,766.62c-25.21-39.4-44.51-82.28-57.26-127.29-14.1-50.2-21.01-102.15-20.54-154.3-.53-50.93,7.51-101.59,23.77-149.86,14.34-43.13,36.58-83.22,65.59-118.22,26.81-32.17,59.81-58.62,97.04-77.8,36.59-18.8,77.18-28.51,118.31-28.31,29.79.12,59.26,6.06,86.77,17.48,29.42,11.99,56.44,29.19,79.74,50.79,25.35,23.45,46.84,50.77,63.64,80.94,18.67,33.38,32.52,69.22,41.16,106.47l97.69-88.71c-29.1-80.31-81.19-150.28-149.77-201.2-32.15-24-67.69-43.08-105.46-56.61C501.71,6.83,463.21.07,424.42.03c-59.49-.76-118.4,11.89-172.34,37-51.51,24.33-97.29,59.29-134.32,102.59-38.13,44.72-67.56,96.17-86.77,151.71C10.13,350.61-.32,413.04.1,475.88c-1.27,64.99,10.07,129.61,33.39,190.28,20.25,51.59,50.39,98.72,88.71,138.76,35.61,36.89,77.97,66.6,124.79,87.51,45.08,20.34,93.4,32.52,142.74,35.98-79.05-33.1-146.12-89.55-192.23-161.79Z"/>
    </g>
    <circle class="cls-3" cx="532.56" cy="487.38" r="109.79"/>
  </g>
  <g>
    <path class="cls-4" d="M1253.38,818.8c-24.84,0-44.02-6.92-57.56-20.74s-20.32-33.71-20.32-59.68v-231.93l32.17,85.49-194.69-280.18c-9.6-13.54-13.69-28.63-12.27-45.29,1.4-16.64,8.17-30.75,20.31-42.32,12.13-11.56,29.48-17.35,52.06-17.35,15.79,0,30.18,3.81,43.17,11.43,12.97,7.62,25.1,20.46,36.4,38.51l118.51,174.37h-30.47l118.5-175.22c11.85-18.05,23.98-30.75,36.4-38.09,12.41-7.33,27.09-11,44.02-11,21.44,0,38.09,5.37,49.94,16.08,11.85,10.73,18.2,24.27,19.05,40.63.85,16.37-4.38,33.01-15.66,49.94l-192.99,278.49,31.32-85.49v231.93c0,53.62-25.96,80.41-77.88,80.41Z"/>
    <path class="cls-4" d="M1683.37,818.8c-23.7,0-41.77-6.22-54.17-18.62-12.42-12.41-18.62-30.75-18.62-55.02v-461.32c0-24.83,6.2-43.87,18.62-57.14,12.41-13.25,28.78-19.89,49.1-19.89,18.05,0,32.17,3.39,42.32,10.16,10.16,6.77,21.44,18.07,33.86,33.86l268.33,335.2h-23.7v-306.42c0-23.7,6.06-41.75,18.2-54.17,12.13-12.41,30.05-18.62,53.75-18.62s41.61,6.22,53.75,18.62c12.13,12.42,18.2,30.47,18.2,54.17v468.94c0,21.45-5.65,38.51-16.93,51.21-11.29,12.7-26.53,19.05-45.71,19.05s-34.28-3.53-45.29-10.58c-11-7.05-22.72-18.2-35.13-33.44l-268.33-336.05h23.7v306.42c0,24.27-6.07,42.61-18.2,55.02-12.14,12.41-30.05,18.62-53.75,18.62Z"/>
    <path class="cls-4" d="M2266.58,818.8c-17.5,0-32.17-4.1-44.02-12.27s-19.19-19.47-22.01-33.86c-2.83-14.39-.29-30.6,7.62-48.67l210.77-453.71c10.16-22.01,22.71-38.09,37.67-48.25,14.95-10.16,32.02-15.24,51.21-15.24s35.98,5.08,50.37,15.24c14.39,10.16,26.94,26.24,37.67,48.25l210.77,453.71c9.02,18.07,12.27,34.43,9.73,49.09-2.54,14.68-9.6,25.96-21.16,33.86-11.57,7.9-25.82,11.85-42.75,11.85-22.58,0-39.93-5.08-52.06-15.24-12.14-10.16-23-26.52-32.59-49.09l-45.71-107.5,59.25,43.17h-348.74l60.1-43.17-45.71,107.5c-10.16,22.58-20.61,38.94-31.32,49.09-10.73,10.16-27.09,15.24-49.09,15.24ZM2506.13,376.94l-98.19,234.47-23.7-40.63h246.32l-23.7,40.63-99.04-234.47h-1.69Z"/>
    <path class="cls-4" d="M2948.82,818.8c-24.84,0-44.02-6.92-57.56-20.74-13.54-13.82-20.32-33.14-20.32-57.98v-446.93c0-25.39,6.9-44.86,20.74-58.41,13.82-13.54,33.14-20.32,57.98-20.32h208.23c67.72,0,120.05,16.51,157.02,49.52,36.95,33.01,55.44,78.87,55.44,137.55,0,37.81-8.33,70.68-24.97,98.61-16.65,27.93-40.63,49.39-71.95,64.33-31.32,14.96-69.83,22.43-115.54,22.43l6.77-15.24h40.63c24.26,0,45.71,5.79,64.33,17.35,18.62,11.57,34.14,29.2,46.56,52.9l42.32,76.18c9.02,16.37,13.25,32.31,12.7,47.83-.57,15.53-6.64,28.22-18.2,38.09-11.57,9.87-28.36,14.81-50.37,14.81s-39.93-4.52-53.75-13.54c-13.83-9.02-26.11-23.13-36.82-42.32l-77.03-141.36c-6.77-12.41-15.38-21.02-25.82-25.82-10.45-4.79-22.43-7.19-35.97-7.19h-46.56v151.52c0,24.84-6.49,44.16-19.47,57.98-12.99,13.82-32.46,20.74-58.41,20.74ZM3026.7,478.52h103.27c29.9,0,52.76-5.92,68.56-17.78,15.79-11.85,23.7-30.18,23.7-55.02s-7.91-41.61-23.7-53.75c-15.8-12.13-38.66-18.2-68.56-18.2h-103.27v144.75Z"/>
    <path class="cls-4" d="M3471.09,818.8c-17.5,0-32.17-4.1-44.02-12.27s-19.19-19.47-22.01-33.86c-2.83-14.39-.29-30.6,7.62-48.67l210.77-453.71c10.16-22.01,22.71-38.09,37.67-48.25,14.95-10.16,32.02-15.24,51.21-15.24s35.98,5.08,50.37,15.24c14.39,10.16,26.94,26.24,37.67,48.25l210.77,453.71c9.02,18.07,12.27,34.43,9.73,49.09-2.54,14.68-9.6,25.96-21.16,33.86-11.57,7.9-25.82,11.85-42.75,11.85-22.58,0-39.93-5.08-52.06-15.24-12.14-10.16-23-26.52-32.59-49.09l-45.71-107.5,59.25,43.17h-348.74l60.1-43.17-45.71,107.5c-10.16,22.58-20.61,38.94-31.32,49.09-10.73,10.16-27.09,15.24-49.09,15.24ZM3710.64,376.94l-98.19,234.47-23.7-40.63h246.32l-23.7,40.63-99.04-234.47h-1.69Z"/>
  </g>
  <rect class="cls-2" x="670.19" y="1204.7" width="0" height="5.47"/>
</svg>